<mxfile host="Electron" modified="2023-12-31T12:44:08.963Z" agent="Mozilla/5.0 (Windows NT 10.0; Win64; x64) AppleWebKit/537.36 (KHTML, like Gecko) draw.io/21.6.8 Chrome/114.0.5735.289 Electron/25.5.0 Safari/537.36" etag="DzxP5ryipAeY2TtroHpZ" version="21.6.8" type="device">
  <diagram name="第 1 页" id="pqPFhgKqKJ-T5208Ivwm">
    <mxGraphModel dx="2389" dy="909" grid="1" gridSize="10" guides="1" tooltips="1" connect="1" arrows="1" fold="1" page="1" pageScale="1" pageWidth="827" pageHeight="1169" math="0" shadow="0">
      <root>
        <mxCell id="0" />
        <mxCell id="1" parent="0" />
        <mxCell id="4P5M6g8KuMsYVDBknsH7-1" value="3bit" style="rounded=0;whiteSpace=wrap;html=1;fillColor=#ffe6cc;strokeColor=#d79b00;" parent="1" vertex="1">
          <mxGeometry x="50" y="160" width="60" height="20" as="geometry" />
        </mxCell>
        <mxCell id="4P5M6g8KuMsYVDBknsH7-2" value="29bit" style="rounded=0;whiteSpace=wrap;html=1;fillColor=#d5e8d4;strokeColor=#82b366;" parent="1" vertex="1">
          <mxGeometry x="110" y="160" width="580" height="20" as="geometry" />
        </mxCell>
        <mxCell id="4P5M6g8KuMsYVDBknsH7-4" value="0" style="rounded=0;whiteSpace=wrap;html=1;" parent="1" vertex="1">
          <mxGeometry x="50" y="90" width="20" height="20" as="geometry" />
        </mxCell>
        <mxCell id="4P5M6g8KuMsYVDBknsH7-5" value="0" style="rounded=0;whiteSpace=wrap;html=1;" parent="1" vertex="1">
          <mxGeometry x="70" y="90" width="20" height="20" as="geometry" />
        </mxCell>
        <mxCell id="4P5M6g8KuMsYVDBknsH7-6" value="0" style="rounded=0;whiteSpace=wrap;html=1;" parent="1" vertex="1">
          <mxGeometry x="90" y="90" width="20" height="20" as="geometry" />
        </mxCell>
        <mxCell id="4P5M6g8KuMsYVDBknsH7-7" value="0" style="rounded=0;whiteSpace=wrap;html=1;" parent="1" vertex="1">
          <mxGeometry x="110" y="90" width="20" height="20" as="geometry" />
        </mxCell>
        <mxCell id="4P5M6g8KuMsYVDBknsH7-9" value="0" style="rounded=0;whiteSpace=wrap;html=1;" parent="1" vertex="1">
          <mxGeometry x="130" y="90" width="20" height="20" as="geometry" />
        </mxCell>
        <mxCell id="4P5M6g8KuMsYVDBknsH7-10" value="0" style="rounded=0;whiteSpace=wrap;html=1;" parent="1" vertex="1">
          <mxGeometry x="150" y="90" width="20" height="20" as="geometry" />
        </mxCell>
        <mxCell id="4P5M6g8KuMsYVDBknsH7-11" value="0" style="rounded=0;whiteSpace=wrap;html=1;" parent="1" vertex="1">
          <mxGeometry x="170" y="90" width="20" height="20" as="geometry" />
        </mxCell>
        <mxCell id="4P5M6g8KuMsYVDBknsH7-12" value="0" style="rounded=0;whiteSpace=wrap;html=1;" parent="1" vertex="1">
          <mxGeometry x="190" y="90" width="20" height="20" as="geometry" />
        </mxCell>
        <mxCell id="4P5M6g8KuMsYVDBknsH7-13" value="0" style="rounded=0;whiteSpace=wrap;html=1;" parent="1" vertex="1">
          <mxGeometry x="210" y="90" width="20" height="20" as="geometry" />
        </mxCell>
        <mxCell id="4P5M6g8KuMsYVDBknsH7-14" value="0" style="rounded=0;whiteSpace=wrap;html=1;" parent="1" vertex="1">
          <mxGeometry x="230" y="90" width="20" height="20" as="geometry" />
        </mxCell>
        <mxCell id="4P5M6g8KuMsYVDBknsH7-15" value="0" style="rounded=0;whiteSpace=wrap;html=1;" parent="1" vertex="1">
          <mxGeometry x="250" y="90" width="20" height="20" as="geometry" />
        </mxCell>
        <mxCell id="4P5M6g8KuMsYVDBknsH7-16" value="0" style="rounded=0;whiteSpace=wrap;html=1;" parent="1" vertex="1">
          <mxGeometry x="270" y="90" width="20" height="20" as="geometry" />
        </mxCell>
        <mxCell id="4P5M6g8KuMsYVDBknsH7-17" value="0" style="rounded=0;whiteSpace=wrap;html=1;" parent="1" vertex="1">
          <mxGeometry x="290" y="90" width="20" height="20" as="geometry" />
        </mxCell>
        <mxCell id="4P5M6g8KuMsYVDBknsH7-18" value="0" style="rounded=0;whiteSpace=wrap;html=1;" parent="1" vertex="1">
          <mxGeometry x="310" y="90" width="20" height="20" as="geometry" />
        </mxCell>
        <mxCell id="4P5M6g8KuMsYVDBknsH7-19" value="0" style="rounded=0;whiteSpace=wrap;html=1;" parent="1" vertex="1">
          <mxGeometry x="330" y="90" width="20" height="20" as="geometry" />
        </mxCell>
        <mxCell id="4P5M6g8KuMsYVDBknsH7-20" value="0" style="rounded=0;whiteSpace=wrap;html=1;" parent="1" vertex="1">
          <mxGeometry x="350" y="90" width="20" height="20" as="geometry" />
        </mxCell>
        <mxCell id="4P5M6g8KuMsYVDBknsH7-21" value="0" style="rounded=0;whiteSpace=wrap;html=1;" parent="1" vertex="1">
          <mxGeometry x="370" y="90" width="20" height="20" as="geometry" />
        </mxCell>
        <mxCell id="4P5M6g8KuMsYVDBknsH7-22" value="0" style="rounded=0;whiteSpace=wrap;html=1;" parent="1" vertex="1">
          <mxGeometry x="390" y="90" width="20" height="20" as="geometry" />
        </mxCell>
        <mxCell id="4P5M6g8KuMsYVDBknsH7-23" value="0" style="rounded=0;whiteSpace=wrap;html=1;" parent="1" vertex="1">
          <mxGeometry x="410" y="90" width="20" height="20" as="geometry" />
        </mxCell>
        <mxCell id="4P5M6g8KuMsYVDBknsH7-24" value="0" style="rounded=0;whiteSpace=wrap;html=1;" parent="1" vertex="1">
          <mxGeometry x="430" y="90" width="20" height="20" as="geometry" />
        </mxCell>
        <mxCell id="4P5M6g8KuMsYVDBknsH7-25" value="0" style="rounded=0;whiteSpace=wrap;html=1;" parent="1" vertex="1">
          <mxGeometry x="450" y="90" width="20" height="20" as="geometry" />
        </mxCell>
        <mxCell id="4P5M6g8KuMsYVDBknsH7-26" value="0" style="rounded=0;whiteSpace=wrap;html=1;" parent="1" vertex="1">
          <mxGeometry x="470" y="90" width="20" height="20" as="geometry" />
        </mxCell>
        <mxCell id="4P5M6g8KuMsYVDBknsH7-27" value="0" style="rounded=0;whiteSpace=wrap;html=1;" parent="1" vertex="1">
          <mxGeometry x="490" y="90" width="20" height="20" as="geometry" />
        </mxCell>
        <mxCell id="4P5M6g8KuMsYVDBknsH7-28" value="0" style="rounded=0;whiteSpace=wrap;html=1;" parent="1" vertex="1">
          <mxGeometry x="510" y="90" width="20" height="20" as="geometry" />
        </mxCell>
        <mxCell id="4P5M6g8KuMsYVDBknsH7-29" value="0" style="rounded=0;whiteSpace=wrap;html=1;" parent="1" vertex="1">
          <mxGeometry x="530" y="90" width="20" height="20" as="geometry" />
        </mxCell>
        <mxCell id="4P5M6g8KuMsYVDBknsH7-30" value="0" style="rounded=0;whiteSpace=wrap;html=1;" parent="1" vertex="1">
          <mxGeometry x="550" y="90" width="20" height="20" as="geometry" />
        </mxCell>
        <mxCell id="4P5M6g8KuMsYVDBknsH7-31" value="0" style="rounded=0;whiteSpace=wrap;html=1;" parent="1" vertex="1">
          <mxGeometry x="570" y="90" width="20" height="20" as="geometry" />
        </mxCell>
        <mxCell id="4P5M6g8KuMsYVDBknsH7-32" value="0" style="rounded=0;whiteSpace=wrap;html=1;" parent="1" vertex="1">
          <mxGeometry x="590" y="90" width="20" height="20" as="geometry" />
        </mxCell>
        <mxCell id="4P5M6g8KuMsYVDBknsH7-33" value="0" style="rounded=0;whiteSpace=wrap;html=1;" parent="1" vertex="1">
          <mxGeometry x="610" y="90" width="20" height="20" as="geometry" />
        </mxCell>
        <mxCell id="4P5M6g8KuMsYVDBknsH7-34" value="0" style="rounded=0;whiteSpace=wrap;html=1;" parent="1" vertex="1">
          <mxGeometry x="630" y="90" width="20" height="20" as="geometry" />
        </mxCell>
        <mxCell id="4P5M6g8KuMsYVDBknsH7-35" value="1" style="rounded=0;whiteSpace=wrap;html=1;fillColor=#dae8fc;strokeColor=#6c8ebf;" parent="1" vertex="1">
          <mxGeometry x="650" y="90" width="20" height="20" as="geometry" />
        </mxCell>
        <mxCell id="4P5M6g8KuMsYVDBknsH7-41" style="edgeStyle=orthogonalEdgeStyle;rounded=0;orthogonalLoop=1;jettySize=auto;html=1;exitX=0;exitY=1;exitDx=0;exitDy=0;entryX=0.5;entryY=0;entryDx=0;entryDy=0;" parent="1" source="4P5M6g8KuMsYVDBknsH7-36" target="4P5M6g8KuMsYVDBknsH7-1" edge="1">
          <mxGeometry relative="1" as="geometry">
            <mxPoint x="70" y="180" as="targetPoint" />
            <Array as="points">
              <mxPoint x="670" y="140" />
              <mxPoint x="80" y="140" />
            </Array>
          </mxGeometry>
        </mxCell>
        <mxCell id="4P5M6g8KuMsYVDBknsH7-42" value="定点化" style="edgeLabel;html=1;align=center;verticalAlign=middle;resizable=0;points=[];" parent="4P5M6g8KuMsYVDBknsH7-41" vertex="1" connectable="0">
          <mxGeometry x="-0.0403" y="-1" relative="1" as="geometry">
            <mxPoint x="-73" y="-9" as="offset" />
          </mxGeometry>
        </mxCell>
        <mxCell id="4P5M6g8KuMsYVDBknsH7-36" value="0" style="rounded=0;whiteSpace=wrap;html=1;fillColor=#dae8fc;strokeColor=#6c8ebf;" parent="1" vertex="1">
          <mxGeometry x="670" y="90" width="20" height="20" as="geometry" />
        </mxCell>
        <mxCell id="4P5M6g8KuMsYVDBknsH7-45" value="1" style="rounded=0;whiteSpace=wrap;html=1;dashed=1;fillColor=#dae8fc;strokeColor=#6c8ebf;" parent="1" vertex="1">
          <mxGeometry x="50" y="250" width="20" height="20" as="geometry" />
        </mxCell>
        <mxCell id="4P5M6g8KuMsYVDBknsH7-46" value="0" style="rounded=0;whiteSpace=wrap;html=1;dashed=1;fillColor=#dae8fc;strokeColor=#6c8ebf;" parent="1" vertex="1">
          <mxGeometry x="70" y="250" width="20" height="20" as="geometry" />
        </mxCell>
        <mxCell id="4P5M6g8KuMsYVDBknsH7-47" value="0" style="rounded=0;whiteSpace=wrap;html=1;dashed=1;fillColor=#ffe6cc;strokeColor=#d79b00;" parent="1" vertex="1">
          <mxGeometry x="90" y="250" width="20" height="20" as="geometry" />
        </mxCell>
        <mxCell id="4P5M6g8KuMsYVDBknsH7-48" value="0" style="rounded=0;whiteSpace=wrap;html=1;dashed=1;fillColor=#d5e8d4;strokeColor=#82b366;" parent="1" vertex="1">
          <mxGeometry x="110" y="250" width="20" height="20" as="geometry" />
        </mxCell>
        <mxCell id="4P5M6g8KuMsYVDBknsH7-49" value="0" style="rounded=0;whiteSpace=wrap;html=1;dashed=1;fillColor=#d5e8d4;strokeColor=#82b366;" parent="1" vertex="1">
          <mxGeometry x="130" y="250" width="20" height="20" as="geometry" />
        </mxCell>
        <mxCell id="4P5M6g8KuMsYVDBknsH7-50" value="0" style="rounded=0;whiteSpace=wrap;html=1;dashed=1;fillColor=#d5e8d4;strokeColor=#82b366;" parent="1" vertex="1">
          <mxGeometry x="150" y="250" width="20" height="20" as="geometry" />
        </mxCell>
        <mxCell id="4P5M6g8KuMsYVDBknsH7-51" value="0" style="rounded=0;whiteSpace=wrap;html=1;dashed=1;fillColor=#d5e8d4;strokeColor=#82b366;" parent="1" vertex="1">
          <mxGeometry x="170" y="250" width="20" height="20" as="geometry" />
        </mxCell>
        <mxCell id="4P5M6g8KuMsYVDBknsH7-52" value="0" style="rounded=0;whiteSpace=wrap;html=1;dashed=1;fillColor=#d5e8d4;strokeColor=#82b366;" parent="1" vertex="1">
          <mxGeometry x="190" y="250" width="20" height="20" as="geometry" />
        </mxCell>
        <mxCell id="4P5M6g8KuMsYVDBknsH7-53" value="0" style="rounded=0;whiteSpace=wrap;html=1;dashed=1;fillColor=#d5e8d4;strokeColor=#82b366;" parent="1" vertex="1">
          <mxGeometry x="210" y="250" width="20" height="20" as="geometry" />
        </mxCell>
        <mxCell id="4P5M6g8KuMsYVDBknsH7-54" value="0" style="rounded=0;whiteSpace=wrap;html=1;dashed=1;fillColor=#d5e8d4;strokeColor=#82b366;" parent="1" vertex="1">
          <mxGeometry x="230" y="250" width="20" height="20" as="geometry" />
        </mxCell>
        <mxCell id="4P5M6g8KuMsYVDBknsH7-55" value="0" style="rounded=0;whiteSpace=wrap;html=1;dashed=1;fillColor=#d5e8d4;strokeColor=#82b366;" parent="1" vertex="1">
          <mxGeometry x="250" y="250" width="20" height="20" as="geometry" />
        </mxCell>
        <mxCell id="4P5M6g8KuMsYVDBknsH7-56" value="0" style="rounded=0;whiteSpace=wrap;html=1;dashed=1;fillColor=#d5e8d4;strokeColor=#82b366;" parent="1" vertex="1">
          <mxGeometry x="270" y="250" width="20" height="20" as="geometry" />
        </mxCell>
        <mxCell id="4P5M6g8KuMsYVDBknsH7-57" value="0" style="rounded=0;whiteSpace=wrap;html=1;dashed=1;fillColor=#d5e8d4;strokeColor=#82b366;" parent="1" vertex="1">
          <mxGeometry x="290" y="250" width="20" height="20" as="geometry" />
        </mxCell>
        <mxCell id="4P5M6g8KuMsYVDBknsH7-158" style="edgeStyle=orthogonalEdgeStyle;rounded=0;orthogonalLoop=1;jettySize=auto;html=1;exitX=0.5;exitY=1;exitDx=0;exitDy=0;" parent="1" source="4P5M6g8KuMsYVDBknsH7-58" target="4P5M6g8KuMsYVDBknsH7-154" edge="1">
          <mxGeometry relative="1" as="geometry" />
        </mxCell>
        <mxCell id="4P5M6g8KuMsYVDBknsH7-159" style="edgeStyle=orthogonalEdgeStyle;rounded=0;orthogonalLoop=1;jettySize=auto;html=1;exitX=0.5;exitY=1;exitDx=0;exitDy=0;entryX=0.5;entryY=0;entryDx=0;entryDy=0;" parent="1" source="4P5M6g8KuMsYVDBknsH7-58" target="4P5M6g8KuMsYVDBknsH7-155" edge="1">
          <mxGeometry relative="1" as="geometry" />
        </mxCell>
        <mxCell id="4P5M6g8KuMsYVDBknsH7-58" value="0" style="rounded=0;whiteSpace=wrap;html=1;dashed=1;fillColor=#d5e8d4;strokeColor=#82b366;" parent="1" vertex="1">
          <mxGeometry x="310" y="250" width="20" height="20" as="geometry" />
        </mxCell>
        <mxCell id="4P5M6g8KuMsYVDBknsH7-59" value="0" style="rounded=0;whiteSpace=wrap;html=1;dashed=1;fillColor=#d5e8d4;strokeColor=#82b366;" parent="1" vertex="1">
          <mxGeometry x="330" y="250" width="20" height="20" as="geometry" />
        </mxCell>
        <mxCell id="4P5M6g8KuMsYVDBknsH7-60" value="0" style="rounded=0;whiteSpace=wrap;html=1;dashed=1;fillColor=#d5e8d4;strokeColor=#82b366;" parent="1" vertex="1">
          <mxGeometry x="350" y="250" width="20" height="20" as="geometry" />
        </mxCell>
        <mxCell id="4P5M6g8KuMsYVDBknsH7-61" value="0" style="rounded=0;whiteSpace=wrap;html=1;dashed=1;fillColor=#d5e8d4;strokeColor=#82b366;" parent="1" vertex="1">
          <mxGeometry x="370" y="250" width="20" height="20" as="geometry" />
        </mxCell>
        <mxCell id="4P5M6g8KuMsYVDBknsH7-62" value="0" style="rounded=0;whiteSpace=wrap;html=1;dashed=1;fillColor=#d5e8d4;strokeColor=#82b366;" parent="1" vertex="1">
          <mxGeometry x="390" y="250" width="20" height="20" as="geometry" />
        </mxCell>
        <mxCell id="4P5M6g8KuMsYVDBknsH7-63" value="0" style="rounded=0;whiteSpace=wrap;html=1;dashed=1;fillColor=#d5e8d4;strokeColor=#82b366;" parent="1" vertex="1">
          <mxGeometry x="410" y="250" width="20" height="20" as="geometry" />
        </mxCell>
        <mxCell id="4P5M6g8KuMsYVDBknsH7-64" value="0" style="rounded=0;whiteSpace=wrap;html=1;dashed=1;fillColor=#d5e8d4;strokeColor=#82b366;" parent="1" vertex="1">
          <mxGeometry x="430" y="250" width="20" height="20" as="geometry" />
        </mxCell>
        <mxCell id="4P5M6g8KuMsYVDBknsH7-65" value="0" style="rounded=0;whiteSpace=wrap;html=1;dashed=1;fillColor=#d5e8d4;strokeColor=#82b366;" parent="1" vertex="1">
          <mxGeometry x="450" y="250" width="20" height="20" as="geometry" />
        </mxCell>
        <mxCell id="4P5M6g8KuMsYVDBknsH7-66" value="0" style="rounded=0;whiteSpace=wrap;html=1;dashed=1;fillColor=#d5e8d4;strokeColor=#82b366;" parent="1" vertex="1">
          <mxGeometry x="470" y="250" width="20" height="20" as="geometry" />
        </mxCell>
        <mxCell id="4P5M6g8KuMsYVDBknsH7-67" value="0" style="rounded=0;whiteSpace=wrap;html=1;dashed=1;fillColor=#d5e8d4;strokeColor=#82b366;" parent="1" vertex="1">
          <mxGeometry x="490" y="250" width="20" height="20" as="geometry" />
        </mxCell>
        <mxCell id="4P5M6g8KuMsYVDBknsH7-68" value="0" style="rounded=0;whiteSpace=wrap;html=1;dashed=1;fillColor=#d5e8d4;strokeColor=#82b366;" parent="1" vertex="1">
          <mxGeometry x="510" y="250" width="20" height="20" as="geometry" />
        </mxCell>
        <mxCell id="4P5M6g8KuMsYVDBknsH7-69" value="0" style="rounded=0;whiteSpace=wrap;html=1;dashed=1;fillColor=#d5e8d4;strokeColor=#82b366;" parent="1" vertex="1">
          <mxGeometry x="530" y="250" width="20" height="20" as="geometry" />
        </mxCell>
        <mxCell id="4P5M6g8KuMsYVDBknsH7-70" value="0" style="rounded=0;whiteSpace=wrap;html=1;dashed=1;fillColor=#d5e8d4;strokeColor=#82b366;" parent="1" vertex="1">
          <mxGeometry x="550" y="250" width="20" height="20" as="geometry" />
        </mxCell>
        <mxCell id="4P5M6g8KuMsYVDBknsH7-71" value="0" style="rounded=0;whiteSpace=wrap;html=1;dashed=1;fillColor=#d5e8d4;strokeColor=#82b366;" parent="1" vertex="1">
          <mxGeometry x="570" y="250" width="20" height="20" as="geometry" />
        </mxCell>
        <mxCell id="4P5M6g8KuMsYVDBknsH7-72" value="0" style="rounded=0;whiteSpace=wrap;html=1;dashed=1;fillColor=#d5e8d4;strokeColor=#82b366;" parent="1" vertex="1">
          <mxGeometry x="590" y="250" width="20" height="20" as="geometry" />
        </mxCell>
        <mxCell id="4P5M6g8KuMsYVDBknsH7-73" value="0" style="rounded=0;whiteSpace=wrap;html=1;dashed=1;fillColor=#d5e8d4;strokeColor=#82b366;" parent="1" vertex="1">
          <mxGeometry x="610" y="250" width="20" height="20" as="geometry" />
        </mxCell>
        <mxCell id="4P5M6g8KuMsYVDBknsH7-74" value="0" style="rounded=0;whiteSpace=wrap;html=1;dashed=1;fillColor=#d5e8d4;strokeColor=#82b366;" parent="1" vertex="1">
          <mxGeometry x="630" y="250" width="20" height="20" as="geometry" />
        </mxCell>
        <mxCell id="4P5M6g8KuMsYVDBknsH7-75" value="0" style="rounded=0;whiteSpace=wrap;html=1;dashed=1;fillColor=#d5e8d4;strokeColor=#82b366;" parent="1" vertex="1">
          <mxGeometry x="650" y="250" width="20" height="20" as="geometry" />
        </mxCell>
        <mxCell id="4P5M6g8KuMsYVDBknsH7-76" value="0" style="rounded=0;whiteSpace=wrap;html=1;dashed=1;fillColor=#d5e8d4;strokeColor=#82b366;" parent="1" vertex="1">
          <mxGeometry x="670" y="250" width="20" height="20" as="geometry" />
        </mxCell>
        <mxCell id="4P5M6g8KuMsYVDBknsH7-77" value="输入：2" style="text;html=1;strokeColor=none;fillColor=none;align=center;verticalAlign=middle;whiteSpace=wrap;rounded=0;" parent="1" vertex="1">
          <mxGeometry x="-40" y="85" width="80" height="30" as="geometry" />
        </mxCell>
        <mxCell id="4P5M6g8KuMsYVDBknsH7-78" value="定点数：4" style="text;html=1;strokeColor=none;fillColor=none;align=center;verticalAlign=middle;whiteSpace=wrap;rounded=0;" parent="1" vertex="1">
          <mxGeometry x="-40" y="245" width="80" height="30" as="geometry" />
        </mxCell>
        <mxCell id="4P5M6g8KuMsYVDBknsH7-83" style="edgeStyle=orthogonalEdgeStyle;rounded=0;orthogonalLoop=1;jettySize=auto;html=1;exitX=0.5;exitY=1;exitDx=0;exitDy=0;entryX=0.5;entryY=0;entryDx=0;entryDy=0;" parent="1" source="4P5M6g8KuMsYVDBknsH7-79" target="4P5M6g8KuMsYVDBknsH7-97" edge="1">
          <mxGeometry relative="1" as="geometry">
            <mxPoint x="312.5" y="500" as="targetPoint" />
          </mxGeometry>
        </mxCell>
        <mxCell id="4P5M6g8KuMsYVDBknsH7-79" value="Hyperbolic Cordic" style="rounded=0;whiteSpace=wrap;html=1;" parent="1" vertex="1">
          <mxGeometry x="257.5" y="390" width="120" height="50" as="geometry" />
        </mxCell>
        <mxCell id="4P5M6g8KuMsYVDBknsH7-84" value="0" style="rounded=0;whiteSpace=wrap;html=1;dashed=1;fillColor=#ffe6cc;strokeColor=#d79b00;" parent="1" vertex="1">
          <mxGeometry x="50" y="470" width="20" height="20" as="geometry" />
        </mxCell>
        <mxCell id="4P5M6g8KuMsYVDBknsH7-85" value="1" style="rounded=0;whiteSpace=wrap;html=1;dashed=1;fillColor=#ffe6cc;strokeColor=#d79b00;" parent="1" vertex="1">
          <mxGeometry x="70" y="470" width="20" height="20" as="geometry" />
        </mxCell>
        <mxCell id="4P5M6g8KuMsYVDBknsH7-86" value="1" style="rounded=0;whiteSpace=wrap;html=1;dashed=1;fillColor=#ffe6cc;strokeColor=#d79b00;" parent="1" vertex="1">
          <mxGeometry x="90" y="470" width="20" height="20" as="geometry" />
        </mxCell>
        <mxCell id="4P5M6g8KuMsYVDBknsH7-87" value="0" style="rounded=0;whiteSpace=wrap;html=1;dashed=1;fillColor=#d5e8d4;strokeColor=#82b366;" parent="1" vertex="1">
          <mxGeometry x="110" y="470" width="20" height="20" as="geometry" />
        </mxCell>
        <mxCell id="4P5M6g8KuMsYVDBknsH7-88" value="1" style="rounded=0;whiteSpace=wrap;html=1;dashed=1;fillColor=#d5e8d4;strokeColor=#82b366;" parent="1" vertex="1">
          <mxGeometry x="130" y="470" width="20" height="20" as="geometry" />
        </mxCell>
        <mxCell id="4P5M6g8KuMsYVDBknsH7-89" value="0" style="rounded=0;whiteSpace=wrap;html=1;dashed=1;fillColor=#d5e8d4;strokeColor=#82b366;" parent="1" vertex="1">
          <mxGeometry x="150" y="470" width="20" height="20" as="geometry" />
        </mxCell>
        <mxCell id="4P5M6g8KuMsYVDBknsH7-90" value="1" style="rounded=0;whiteSpace=wrap;html=1;dashed=1;fillColor=#d5e8d4;strokeColor=#82b366;" parent="1" vertex="1">
          <mxGeometry x="170" y="470" width="20" height="20" as="geometry" />
        </mxCell>
        <mxCell id="4P5M6g8KuMsYVDBknsH7-91" value="0" style="rounded=0;whiteSpace=wrap;html=1;dashed=1;fillColor=#d5e8d4;strokeColor=#82b366;" parent="1" vertex="1">
          <mxGeometry x="190" y="470" width="20" height="20" as="geometry" />
        </mxCell>
        <mxCell id="4P5M6g8KuMsYVDBknsH7-92" value="0" style="rounded=0;whiteSpace=wrap;html=1;dashed=1;fillColor=#d5e8d4;strokeColor=#82b366;" parent="1" vertex="1">
          <mxGeometry x="210" y="470" width="20" height="20" as="geometry" />
        </mxCell>
        <mxCell id="4P5M6g8KuMsYVDBknsH7-93" value="0" style="rounded=0;whiteSpace=wrap;html=1;dashed=1;fillColor=#d5e8d4;strokeColor=#82b366;" parent="1" vertex="1">
          <mxGeometry x="230" y="470" width="20" height="20" as="geometry" />
        </mxCell>
        <mxCell id="4P5M6g8KuMsYVDBknsH7-94" value="1" style="rounded=0;whiteSpace=wrap;html=1;dashed=1;fillColor=#d5e8d4;strokeColor=#82b366;" parent="1" vertex="1">
          <mxGeometry x="250" y="470" width="20" height="20" as="geometry" />
        </mxCell>
        <mxCell id="4P5M6g8KuMsYVDBknsH7-95" value="1" style="rounded=0;whiteSpace=wrap;html=1;dashed=1;fillColor=#d5e8d4;strokeColor=#82b366;" parent="1" vertex="1">
          <mxGeometry x="270" y="470" width="20" height="20" as="geometry" />
        </mxCell>
        <mxCell id="4P5M6g8KuMsYVDBknsH7-96" value="0" style="rounded=0;whiteSpace=wrap;html=1;dashed=1;fillColor=#d5e8d4;strokeColor=#82b366;" parent="1" vertex="1">
          <mxGeometry x="290" y="470" width="20" height="20" as="geometry" />
        </mxCell>
        <mxCell id="4P5M6g8KuMsYVDBknsH7-193" style="edgeStyle=orthogonalEdgeStyle;rounded=0;orthogonalLoop=1;jettySize=auto;html=1;exitX=0.5;exitY=1;exitDx=0;exitDy=0;entryX=0.5;entryY=0;entryDx=0;entryDy=0;" parent="1" source="4P5M6g8KuMsYVDBknsH7-97" target="4P5M6g8KuMsYVDBknsH7-192" edge="1">
          <mxGeometry relative="1" as="geometry" />
        </mxCell>
        <mxCell id="4P5M6g8KuMsYVDBknsH7-97" value="1" style="rounded=0;whiteSpace=wrap;html=1;dashed=1;fillColor=#d5e8d4;strokeColor=#82b366;" parent="1" vertex="1">
          <mxGeometry x="310" y="470" width="20" height="20" as="geometry" />
        </mxCell>
        <mxCell id="4P5M6g8KuMsYVDBknsH7-98" value="1" style="rounded=0;whiteSpace=wrap;html=1;dashed=1;fillColor=#d5e8d4;strokeColor=#82b366;" parent="1" vertex="1">
          <mxGeometry x="330" y="470" width="20" height="20" as="geometry" />
        </mxCell>
        <mxCell id="4P5M6g8KuMsYVDBknsH7-99" value="0" style="rounded=0;whiteSpace=wrap;html=1;dashed=1;fillColor=#d5e8d4;strokeColor=#82b366;" parent="1" vertex="1">
          <mxGeometry x="350" y="470" width="20" height="20" as="geometry" />
        </mxCell>
        <mxCell id="4P5M6g8KuMsYVDBknsH7-100" value="0" style="rounded=0;whiteSpace=wrap;html=1;dashed=1;fillColor=#d5e8d4;strokeColor=#82b366;" parent="1" vertex="1">
          <mxGeometry x="370" y="470" width="20" height="20" as="geometry" />
        </mxCell>
        <mxCell id="4P5M6g8KuMsYVDBknsH7-101" value="1" style="rounded=0;whiteSpace=wrap;html=1;dashed=1;fillColor=#d5e8d4;strokeColor=#82b366;" parent="1" vertex="1">
          <mxGeometry x="390" y="470" width="20" height="20" as="geometry" />
        </mxCell>
        <mxCell id="4P5M6g8KuMsYVDBknsH7-102" value="1" style="rounded=0;whiteSpace=wrap;html=1;dashed=1;fillColor=#d5e8d4;strokeColor=#82b366;" parent="1" vertex="1">
          <mxGeometry x="410" y="470" width="20" height="20" as="geometry" />
        </mxCell>
        <mxCell id="4P5M6g8KuMsYVDBknsH7-103" value="0" style="rounded=0;whiteSpace=wrap;html=1;dashed=1;fillColor=#d5e8d4;strokeColor=#82b366;" parent="1" vertex="1">
          <mxGeometry x="430" y="470" width="20" height="20" as="geometry" />
        </mxCell>
        <mxCell id="4P5M6g8KuMsYVDBknsH7-104" value="1" style="rounded=0;whiteSpace=wrap;html=1;dashed=1;fillColor=#d5e8d4;strokeColor=#82b366;" parent="1" vertex="1">
          <mxGeometry x="450" y="470" width="20" height="20" as="geometry" />
        </mxCell>
        <mxCell id="4P5M6g8KuMsYVDBknsH7-105" value="1" style="rounded=0;whiteSpace=wrap;html=1;dashed=1;fillColor=#d5e8d4;strokeColor=#82b366;" parent="1" vertex="1">
          <mxGeometry x="470" y="470" width="20" height="20" as="geometry" />
        </mxCell>
        <mxCell id="4P5M6g8KuMsYVDBknsH7-106" value="0" style="rounded=0;whiteSpace=wrap;html=1;dashed=1;fillColor=#d5e8d4;strokeColor=#82b366;" parent="1" vertex="1">
          <mxGeometry x="490" y="470" width="20" height="20" as="geometry" />
        </mxCell>
        <mxCell id="4P5M6g8KuMsYVDBknsH7-107" value="0" style="rounded=0;whiteSpace=wrap;html=1;dashed=1;fillColor=#d5e8d4;strokeColor=#82b366;" parent="1" vertex="1">
          <mxGeometry x="510" y="470" width="20" height="20" as="geometry" />
        </mxCell>
        <mxCell id="4P5M6g8KuMsYVDBknsH7-108" value="1" style="rounded=0;whiteSpace=wrap;html=1;dashed=1;fillColor=#d5e8d4;strokeColor=#82b366;" parent="1" vertex="1">
          <mxGeometry x="530" y="470" width="20" height="20" as="geometry" />
        </mxCell>
        <mxCell id="4P5M6g8KuMsYVDBknsH7-109" value="1" style="rounded=0;whiteSpace=wrap;html=1;dashed=1;fillColor=#d5e8d4;strokeColor=#82b366;" parent="1" vertex="1">
          <mxGeometry x="550" y="470" width="20" height="20" as="geometry" />
        </mxCell>
        <mxCell id="4P5M6g8KuMsYVDBknsH7-110" value="0" style="rounded=0;whiteSpace=wrap;html=1;dashed=1;fillColor=#d5e8d4;strokeColor=#82b366;" parent="1" vertex="1">
          <mxGeometry x="570" y="470" width="20" height="20" as="geometry" />
        </mxCell>
        <mxCell id="4P5M6g8KuMsYVDBknsH7-111" value="0" style="rounded=0;whiteSpace=wrap;html=1;dashed=1;fillColor=#d5e8d4;strokeColor=#82b366;" parent="1" vertex="1">
          <mxGeometry x="590" y="470" width="20" height="20" as="geometry" />
        </mxCell>
        <mxCell id="4P5M6g8KuMsYVDBknsH7-112" value="1" style="rounded=0;whiteSpace=wrap;html=1;dashed=1;fillColor=#d5e8d4;strokeColor=#82b366;" parent="1" vertex="1">
          <mxGeometry x="610" y="470" width="20" height="20" as="geometry" />
        </mxCell>
        <mxCell id="4P5M6g8KuMsYVDBknsH7-113" value="1" style="rounded=0;whiteSpace=wrap;html=1;dashed=1;fillColor=#d5e8d4;strokeColor=#82b366;" parent="1" vertex="1">
          <mxGeometry x="630" y="470" width="20" height="20" as="geometry" />
        </mxCell>
        <mxCell id="4P5M6g8KuMsYVDBknsH7-114" value="0" style="rounded=0;whiteSpace=wrap;html=1;dashed=1;fillColor=#d5e8d4;strokeColor=#82b366;" parent="1" vertex="1">
          <mxGeometry x="650" y="470" width="20" height="20" as="geometry" />
        </mxCell>
        <mxCell id="4P5M6g8KuMsYVDBknsH7-115" value="1" style="rounded=0;whiteSpace=wrap;html=1;dashed=1;fillColor=#d5e8d4;strokeColor=#82b366;" parent="1" vertex="1">
          <mxGeometry x="670" y="470" width="20" height="20" as="geometry" />
        </mxCell>
        <mxCell id="4P5M6g8KuMsYVDBknsH7-116" value="0" style="rounded=0;whiteSpace=wrap;html=1;" parent="1" vertex="1">
          <mxGeometry x="50" y="660" width="20" height="20" as="geometry" />
        </mxCell>
        <mxCell id="4P5M6g8KuMsYVDBknsH7-117" value="0" style="rounded=0;whiteSpace=wrap;html=1;" parent="1" vertex="1">
          <mxGeometry x="70" y="660" width="20" height="20" as="geometry" />
        </mxCell>
        <mxCell id="4P5M6g8KuMsYVDBknsH7-118" value="0" style="rounded=0;whiteSpace=wrap;html=1;" parent="1" vertex="1">
          <mxGeometry x="90" y="660" width="20" height="20" as="geometry" />
        </mxCell>
        <mxCell id="4P5M6g8KuMsYVDBknsH7-119" value="0" style="rounded=0;whiteSpace=wrap;html=1;" parent="1" vertex="1">
          <mxGeometry x="110" y="660" width="20" height="20" as="geometry" />
        </mxCell>
        <mxCell id="4P5M6g8KuMsYVDBknsH7-120" value="0" style="rounded=0;whiteSpace=wrap;html=1;" parent="1" vertex="1">
          <mxGeometry x="130" y="660" width="20" height="20" as="geometry" />
        </mxCell>
        <mxCell id="4P5M6g8KuMsYVDBknsH7-121" value="0" style="rounded=0;whiteSpace=wrap;html=1;" parent="1" vertex="1">
          <mxGeometry x="150" y="660" width="20" height="20" as="geometry" />
        </mxCell>
        <mxCell id="4P5M6g8KuMsYVDBknsH7-122" value="0" style="rounded=0;whiteSpace=wrap;html=1;" parent="1" vertex="1">
          <mxGeometry x="170" y="660" width="20" height="20" as="geometry" />
        </mxCell>
        <mxCell id="4P5M6g8KuMsYVDBknsH7-123" value="0" style="rounded=0;whiteSpace=wrap;html=1;" parent="1" vertex="1">
          <mxGeometry x="190" y="660" width="20" height="20" as="geometry" />
        </mxCell>
        <mxCell id="4P5M6g8KuMsYVDBknsH7-124" value="0" style="rounded=0;whiteSpace=wrap;html=1;" parent="1" vertex="1">
          <mxGeometry x="210" y="660" width="20" height="20" as="geometry" />
        </mxCell>
        <mxCell id="4P5M6g8KuMsYVDBknsH7-125" value="0" style="rounded=0;whiteSpace=wrap;html=1;" parent="1" vertex="1">
          <mxGeometry x="230" y="660" width="20" height="20" as="geometry" />
        </mxCell>
        <mxCell id="4P5M6g8KuMsYVDBknsH7-126" value="0" style="rounded=0;whiteSpace=wrap;html=1;" parent="1" vertex="1">
          <mxGeometry x="250" y="660" width="20" height="20" as="geometry" />
        </mxCell>
        <mxCell id="4P5M6g8KuMsYVDBknsH7-127" value="0" style="rounded=0;whiteSpace=wrap;html=1;" parent="1" vertex="1">
          <mxGeometry x="270" y="660" width="20" height="20" as="geometry" />
        </mxCell>
        <mxCell id="4P5M6g8KuMsYVDBknsH7-128" value="0" style="rounded=0;whiteSpace=wrap;html=1;" parent="1" vertex="1">
          <mxGeometry x="290" y="660" width="20" height="20" as="geometry" />
        </mxCell>
        <mxCell id="4P5M6g8KuMsYVDBknsH7-129" value="0" style="rounded=0;whiteSpace=wrap;html=1;" parent="1" vertex="1">
          <mxGeometry x="310" y="660" width="20" height="20" as="geometry" />
        </mxCell>
        <mxCell id="4P5M6g8KuMsYVDBknsH7-130" value="0" style="rounded=0;whiteSpace=wrap;html=1;" parent="1" vertex="1">
          <mxGeometry x="330" y="660" width="20" height="20" as="geometry" />
        </mxCell>
        <mxCell id="4P5M6g8KuMsYVDBknsH7-131" value="0" style="rounded=0;whiteSpace=wrap;html=1;" parent="1" vertex="1">
          <mxGeometry x="350" y="660" width="20" height="20" as="geometry" />
        </mxCell>
        <mxCell id="4P5M6g8KuMsYVDBknsH7-132" value="0" style="rounded=0;whiteSpace=wrap;html=1;" parent="1" vertex="1">
          <mxGeometry x="370" y="660" width="20" height="20" as="geometry" />
        </mxCell>
        <mxCell id="4P5M6g8KuMsYVDBknsH7-133" value="0" style="rounded=0;whiteSpace=wrap;html=1;" parent="1" vertex="1">
          <mxGeometry x="390" y="660" width="20" height="20" as="geometry" />
        </mxCell>
        <mxCell id="4P5M6g8KuMsYVDBknsH7-134" value="0" style="rounded=0;whiteSpace=wrap;html=1;" parent="1" vertex="1">
          <mxGeometry x="410" y="660" width="20" height="20" as="geometry" />
        </mxCell>
        <mxCell id="4P5M6g8KuMsYVDBknsH7-135" value="0" style="rounded=0;whiteSpace=wrap;html=1;" parent="1" vertex="1">
          <mxGeometry x="430" y="660" width="20" height="20" as="geometry" />
        </mxCell>
        <mxCell id="4P5M6g8KuMsYVDBknsH7-136" value="0" style="rounded=0;whiteSpace=wrap;html=1;" parent="1" vertex="1">
          <mxGeometry x="450" y="660" width="20" height="20" as="geometry" />
        </mxCell>
        <mxCell id="4P5M6g8KuMsYVDBknsH7-137" value="0" style="rounded=0;whiteSpace=wrap;html=1;" parent="1" vertex="1">
          <mxGeometry x="470" y="660" width="20" height="20" as="geometry" />
        </mxCell>
        <mxCell id="4P5M6g8KuMsYVDBknsH7-138" value="0" style="rounded=0;whiteSpace=wrap;html=1;" parent="1" vertex="1">
          <mxGeometry x="490" y="660" width="20" height="20" as="geometry" />
        </mxCell>
        <mxCell id="4P5M6g8KuMsYVDBknsH7-139" value="0" style="rounded=0;whiteSpace=wrap;html=1;" parent="1" vertex="1">
          <mxGeometry x="510" y="660" width="20" height="20" as="geometry" />
        </mxCell>
        <mxCell id="4P5M6g8KuMsYVDBknsH7-140" value="0" style="rounded=0;whiteSpace=wrap;html=1;" parent="1" vertex="1">
          <mxGeometry x="530" y="660" width="20" height="20" as="geometry" />
        </mxCell>
        <mxCell id="4P5M6g8KuMsYVDBknsH7-141" value="0" style="rounded=0;whiteSpace=wrap;html=1;" parent="1" vertex="1">
          <mxGeometry x="550" y="660" width="20" height="20" as="geometry" />
        </mxCell>
        <mxCell id="4P5M6g8KuMsYVDBknsH7-142" value="0" style="rounded=0;whiteSpace=wrap;html=1;" parent="1" vertex="1">
          <mxGeometry x="570" y="660" width="20" height="20" as="geometry" />
        </mxCell>
        <mxCell id="4P5M6g8KuMsYVDBknsH7-143" value="0" style="rounded=0;whiteSpace=wrap;html=1;" parent="1" vertex="1">
          <mxGeometry x="590" y="660" width="20" height="20" as="geometry" />
        </mxCell>
        <mxCell id="4P5M6g8KuMsYVDBknsH7-144" value="0" style="rounded=0;whiteSpace=wrap;html=1;" parent="1" vertex="1">
          <mxGeometry x="610" y="660" width="20" height="20" as="geometry" />
        </mxCell>
        <mxCell id="4P5M6g8KuMsYVDBknsH7-145" value="0" style="rounded=0;whiteSpace=wrap;html=1;" parent="1" vertex="1">
          <mxGeometry x="630" y="660" width="20" height="20" as="geometry" />
        </mxCell>
        <mxCell id="4P5M6g8KuMsYVDBknsH7-146" value="0" style="rounded=0;whiteSpace=wrap;html=1;" parent="1" vertex="1">
          <mxGeometry x="650" y="660" width="20" height="20" as="geometry" />
        </mxCell>
        <mxCell id="4P5M6g8KuMsYVDBknsH7-147" value="1" style="rounded=0;whiteSpace=wrap;html=1;" parent="1" vertex="1">
          <mxGeometry x="670" y="660" width="20" height="20" as="geometry" />
        </mxCell>
        <mxCell id="4P5M6g8KuMsYVDBknsH7-150" value="Cordic输出" style="text;html=1;strokeColor=none;fillColor=none;align=center;verticalAlign=middle;whiteSpace=wrap;rounded=0;" parent="1" vertex="1">
          <mxGeometry x="-45" y="465" width="80" height="30" as="geometry" />
        </mxCell>
        <mxCell id="4P5M6g8KuMsYVDBknsH7-151" value="输出：1" style="text;html=1;strokeColor=none;fillColor=none;align=center;verticalAlign=middle;whiteSpace=wrap;rounded=0;" parent="1" vertex="1">
          <mxGeometry x="-40" y="655" width="80" height="30" as="geometry" />
        </mxCell>
        <mxCell id="4P5M6g8KuMsYVDBknsH7-156" style="edgeStyle=orthogonalEdgeStyle;rounded=0;orthogonalLoop=1;jettySize=auto;html=1;exitX=0.5;exitY=1;exitDx=0;exitDy=0;" parent="1" source="4P5M6g8KuMsYVDBknsH7-154" edge="1">
          <mxGeometry relative="1" as="geometry">
            <mxPoint x="287.5" y="390" as="targetPoint" />
            <Array as="points">
              <mxPoint x="222.5" y="365" />
              <mxPoint x="287.5" y="365" />
            </Array>
          </mxGeometry>
        </mxCell>
        <mxCell id="4P5M6g8KuMsYVDBknsH7-154" value="+1" style="rounded=0;whiteSpace=wrap;html=1;" parent="1" vertex="1">
          <mxGeometry x="177.5" y="320" width="90" height="30" as="geometry" />
        </mxCell>
        <mxCell id="4P5M6g8KuMsYVDBknsH7-157" style="edgeStyle=orthogonalEdgeStyle;rounded=0;orthogonalLoop=1;jettySize=auto;html=1;exitX=0.5;exitY=1;exitDx=0;exitDy=0;entryX=0.792;entryY=0;entryDx=0;entryDy=0;entryPerimeter=0;" parent="1" source="4P5M6g8KuMsYVDBknsH7-155" target="4P5M6g8KuMsYVDBknsH7-79" edge="1">
          <mxGeometry relative="1" as="geometry">
            <mxPoint x="317.5" y="389.9999999999999" as="targetPoint" />
            <Array as="points">
              <mxPoint x="412.5" y="365" />
              <mxPoint x="352.5" y="365" />
            </Array>
          </mxGeometry>
        </mxCell>
        <mxCell id="4P5M6g8KuMsYVDBknsH7-155" value="-1" style="rounded=0;whiteSpace=wrap;html=1;" parent="1" vertex="1">
          <mxGeometry x="367.5" y="320" width="90" height="30" as="geometry" />
        </mxCell>
        <mxCell id="4P5M6g8KuMsYVDBknsH7-234" style="edgeStyle=orthogonalEdgeStyle;rounded=0;orthogonalLoop=1;jettySize=auto;html=1;exitX=0.5;exitY=1;exitDx=0;exitDy=0;entryX=0.5;entryY=0;entryDx=0;entryDy=0;" parent="1" edge="1">
          <mxGeometry relative="1" as="geometry">
            <mxPoint x="60" y="600" as="sourcePoint" />
            <mxPoint x="680" y="655" as="targetPoint" />
            <Array as="points">
              <mxPoint x="60" y="640" />
              <mxPoint x="680" y="640" />
            </Array>
          </mxGeometry>
        </mxCell>
        <mxCell id="4P5M6g8KuMsYVDBknsH7-235" value="移位截断" style="edgeLabel;html=1;align=center;verticalAlign=middle;resizable=0;points=[];" parent="4P5M6g8KuMsYVDBknsH7-234" vertex="1" connectable="0">
          <mxGeometry x="0.1328" y="3" relative="1" as="geometry">
            <mxPoint x="-82" y="-7" as="offset" />
          </mxGeometry>
        </mxCell>
        <mxCell id="4P5M6g8KuMsYVDBknsH7-160" value="1" style="rounded=0;whiteSpace=wrap;html=1;dashed=1;fillColor=#ffe6cc;strokeColor=#d79b00;" parent="1" vertex="1">
          <mxGeometry x="50" y="585" width="20" height="20" as="geometry" />
        </mxCell>
        <mxCell id="4P5M6g8KuMsYVDBknsH7-161" value="0" style="rounded=0;whiteSpace=wrap;html=1;dashed=1;fillColor=#d5e8d4;strokeColor=#82b366;" parent="1" vertex="1">
          <mxGeometry x="70" y="585" width="20" height="20" as="geometry" />
        </mxCell>
        <mxCell id="4P5M6g8KuMsYVDBknsH7-162" value="1" style="rounded=0;whiteSpace=wrap;html=1;dashed=1;fillColor=#d5e8d4;strokeColor=#82b366;" parent="1" vertex="1">
          <mxGeometry x="90" y="585" width="20" height="20" as="geometry" />
        </mxCell>
        <mxCell id="4P5M6g8KuMsYVDBknsH7-163" value="1" style="rounded=0;whiteSpace=wrap;html=1;dashed=1;fillColor=#d5e8d4;strokeColor=#82b366;" parent="1" vertex="1">
          <mxGeometry x="110" y="585" width="20" height="20" as="geometry" />
        </mxCell>
        <mxCell id="4P5M6g8KuMsYVDBknsH7-164" value="0" style="rounded=0;whiteSpace=wrap;html=1;dashed=1;fillColor=#d5e8d4;strokeColor=#82b366;" parent="1" vertex="1">
          <mxGeometry x="130" y="585" width="20" height="20" as="geometry" />
        </mxCell>
        <mxCell id="4P5M6g8KuMsYVDBknsH7-165" value="1" style="rounded=0;whiteSpace=wrap;html=1;dashed=1;fillColor=#d5e8d4;strokeColor=#82b366;" parent="1" vertex="1">
          <mxGeometry x="150" y="585" width="20" height="20" as="geometry" />
        </mxCell>
        <mxCell id="4P5M6g8KuMsYVDBknsH7-166" value="0" style="rounded=0;whiteSpace=wrap;html=1;dashed=1;fillColor=#d5e8d4;strokeColor=#82b366;" parent="1" vertex="1">
          <mxGeometry x="170" y="585" width="20" height="20" as="geometry" />
        </mxCell>
        <mxCell id="4P5M6g8KuMsYVDBknsH7-167" value="1" style="rounded=0;whiteSpace=wrap;html=1;dashed=1;fillColor=#d5e8d4;strokeColor=#82b366;" parent="1" vertex="1">
          <mxGeometry x="190" y="585" width="20" height="20" as="geometry" />
        </mxCell>
        <mxCell id="4P5M6g8KuMsYVDBknsH7-168" value="0" style="rounded=0;whiteSpace=wrap;html=1;dashed=1;fillColor=#d5e8d4;strokeColor=#82b366;" parent="1" vertex="1">
          <mxGeometry x="210" y="585" width="20" height="20" as="geometry" />
        </mxCell>
        <mxCell id="4P5M6g8KuMsYVDBknsH7-169" value="0" style="rounded=0;whiteSpace=wrap;html=1;dashed=1;fillColor=#d5e8d4;strokeColor=#82b366;" parent="1" vertex="1">
          <mxGeometry x="230" y="585" width="20" height="20" as="geometry" />
        </mxCell>
        <mxCell id="4P5M6g8KuMsYVDBknsH7-170" value="0" style="rounded=0;whiteSpace=wrap;html=1;dashed=1;fillColor=#d5e8d4;strokeColor=#82b366;" parent="1" vertex="1">
          <mxGeometry x="250" y="585" width="20" height="20" as="geometry" />
        </mxCell>
        <mxCell id="4P5M6g8KuMsYVDBknsH7-171" value="0" style="rounded=0;whiteSpace=wrap;html=1;dashed=1;fillColor=#d5e8d4;strokeColor=#82b366;" parent="1" vertex="1">
          <mxGeometry x="270" y="585" width="20" height="20" as="geometry" />
        </mxCell>
        <mxCell id="4P5M6g8KuMsYVDBknsH7-172" value="0" style="rounded=0;whiteSpace=wrap;html=1;dashed=1;fillColor=#d5e8d4;strokeColor=#82b366;" parent="1" vertex="1">
          <mxGeometry x="290" y="585" width="20" height="20" as="geometry" />
        </mxCell>
        <mxCell id="4P5M6g8KuMsYVDBknsH7-173" value="1" style="rounded=0;whiteSpace=wrap;html=1;dashed=1;fillColor=#d5e8d4;strokeColor=#82b366;" parent="1" vertex="1">
          <mxGeometry x="310" y="585" width="20" height="20" as="geometry" />
        </mxCell>
        <mxCell id="4P5M6g8KuMsYVDBknsH7-174" value="0" style="rounded=0;whiteSpace=wrap;html=1;dashed=1;fillColor=#d5e8d4;strokeColor=#82b366;" parent="1" vertex="1">
          <mxGeometry x="330" y="585" width="20" height="20" as="geometry" />
        </mxCell>
        <mxCell id="4P5M6g8KuMsYVDBknsH7-175" value="0" style="rounded=0;whiteSpace=wrap;html=1;dashed=1;fillColor=#d5e8d4;strokeColor=#82b366;" parent="1" vertex="1">
          <mxGeometry x="350" y="585" width="20" height="20" as="geometry" />
        </mxCell>
        <mxCell id="4P5M6g8KuMsYVDBknsH7-176" value="0" style="rounded=0;whiteSpace=wrap;html=1;dashed=1;fillColor=#d5e8d4;strokeColor=#82b366;" parent="1" vertex="1">
          <mxGeometry x="370" y="585" width="20" height="20" as="geometry" />
        </mxCell>
        <mxCell id="4P5M6g8KuMsYVDBknsH7-177" value="1" style="rounded=0;whiteSpace=wrap;html=1;dashed=1;fillColor=#d5e8d4;strokeColor=#82b366;" parent="1" vertex="1">
          <mxGeometry x="390" y="585" width="20" height="20" as="geometry" />
        </mxCell>
        <mxCell id="4P5M6g8KuMsYVDBknsH7-178" value="1" style="rounded=0;whiteSpace=wrap;html=1;dashed=1;fillColor=#d5e8d4;strokeColor=#82b366;" parent="1" vertex="1">
          <mxGeometry x="410" y="585" width="20" height="20" as="geometry" />
        </mxCell>
        <mxCell id="4P5M6g8KuMsYVDBknsH7-179" value="0" style="rounded=0;whiteSpace=wrap;html=1;dashed=1;fillColor=#d5e8d4;strokeColor=#82b366;" parent="1" vertex="1">
          <mxGeometry x="430" y="585" width="20" height="20" as="geometry" />
        </mxCell>
        <mxCell id="4P5M6g8KuMsYVDBknsH7-180" value="1" style="rounded=0;whiteSpace=wrap;html=1;dashed=1;fillColor=#d5e8d4;strokeColor=#82b366;" parent="1" vertex="1">
          <mxGeometry x="450" y="585" width="20" height="20" as="geometry" />
        </mxCell>
        <mxCell id="4P5M6g8KuMsYVDBknsH7-181" value="1" style="rounded=0;whiteSpace=wrap;html=1;dashed=1;fillColor=#d5e8d4;strokeColor=#82b366;" parent="1" vertex="1">
          <mxGeometry x="470" y="585" width="20" height="20" as="geometry" />
        </mxCell>
        <mxCell id="4P5M6g8KuMsYVDBknsH7-182" value="1" style="rounded=0;whiteSpace=wrap;html=1;dashed=1;fillColor=#d5e8d4;strokeColor=#82b366;" parent="1" vertex="1">
          <mxGeometry x="490" y="585" width="20" height="20" as="geometry" />
        </mxCell>
        <mxCell id="4P5M6g8KuMsYVDBknsH7-183" value="0" style="rounded=0;whiteSpace=wrap;html=1;dashed=1;fillColor=#d5e8d4;strokeColor=#82b366;" parent="1" vertex="1">
          <mxGeometry x="510" y="585" width="20" height="20" as="geometry" />
        </mxCell>
        <mxCell id="4P5M6g8KuMsYVDBknsH7-184" value="1" style="rounded=0;whiteSpace=wrap;html=1;dashed=1;fillColor=#d5e8d4;strokeColor=#82b366;" parent="1" vertex="1">
          <mxGeometry x="530" y="585" width="20" height="20" as="geometry" />
        </mxCell>
        <mxCell id="4P5M6g8KuMsYVDBknsH7-185" value="0" style="rounded=0;whiteSpace=wrap;html=1;dashed=1;fillColor=#d5e8d4;strokeColor=#82b366;" parent="1" vertex="1">
          <mxGeometry x="550" y="585" width="20" height="20" as="geometry" />
        </mxCell>
        <mxCell id="4P5M6g8KuMsYVDBknsH7-186" value="0" style="rounded=0;whiteSpace=wrap;html=1;dashed=1;fillColor=#d5e8d4;strokeColor=#82b366;" parent="1" vertex="1">
          <mxGeometry x="570" y="585" width="20" height="20" as="geometry" />
        </mxCell>
        <mxCell id="4P5M6g8KuMsYVDBknsH7-187" value="0" style="rounded=0;whiteSpace=wrap;html=1;dashed=1;fillColor=#d5e8d4;strokeColor=#82b366;" parent="1" vertex="1">
          <mxGeometry x="590" y="585" width="20" height="20" as="geometry" />
        </mxCell>
        <mxCell id="4P5M6g8KuMsYVDBknsH7-188" value="1" style="rounded=0;whiteSpace=wrap;html=1;dashed=1;fillColor=#d5e8d4;strokeColor=#82b366;" parent="1" vertex="1">
          <mxGeometry x="610" y="585" width="20" height="20" as="geometry" />
        </mxCell>
        <mxCell id="4P5M6g8KuMsYVDBknsH7-189" value="0" style="rounded=0;whiteSpace=wrap;html=1;dashed=1;fillColor=#d5e8d4;strokeColor=#82b366;" parent="1" vertex="1">
          <mxGeometry x="630" y="585" width="20" height="20" as="geometry" />
        </mxCell>
        <mxCell id="4P5M6g8KuMsYVDBknsH7-190" value="1" style="rounded=0;whiteSpace=wrap;html=1;dashed=1;fillColor=#d5e8d4;strokeColor=#82b366;" parent="1" vertex="1">
          <mxGeometry x="650" y="585" width="20" height="20" as="geometry" />
        </mxCell>
        <mxCell id="4P5M6g8KuMsYVDBknsH7-191" value="0" style="rounded=0;whiteSpace=wrap;html=1;dashed=1;fillColor=#d5e8d4;strokeColor=#82b366;" parent="1" vertex="1">
          <mxGeometry x="670" y="585" width="20" height="20" as="geometry" />
        </mxCell>
        <mxCell id="4P5M6g8KuMsYVDBknsH7-194" style="edgeStyle=orthogonalEdgeStyle;rounded=0;orthogonalLoop=1;jettySize=auto;html=1;exitX=0.5;exitY=1;exitDx=0;exitDy=0;entryX=0.5;entryY=0;entryDx=0;entryDy=0;" parent="1" source="4P5M6g8KuMsYVDBknsH7-192" target="4P5M6g8KuMsYVDBknsH7-173" edge="1">
          <mxGeometry relative="1" as="geometry" />
        </mxCell>
        <mxCell id="4P5M6g8KuMsYVDBknsH7-192" value="*K" style="rounded=0;whiteSpace=wrap;html=1;" parent="1" vertex="1">
          <mxGeometry x="262.5" y="510" width="115" height="40" as="geometry" />
        </mxCell>
        <mxCell id="4P5M6g8KuMsYVDBknsH7-195" value="修正系数" style="text;html=1;strokeColor=none;fillColor=none;align=center;verticalAlign=middle;whiteSpace=wrap;rounded=0;" parent="1" vertex="1">
          <mxGeometry x="-45" y="520" width="80" height="30" as="geometry" />
        </mxCell>
        <mxCell id="4P5M6g8KuMsYVDBknsH7-197" value="0" style="rounded=0;whiteSpace=wrap;html=1;dashed=1;fillColor=#ffe6cc;strokeColor=#d79b00;" parent="1" vertex="1">
          <mxGeometry x="50" y="190" width="20" height="20" as="geometry" />
        </mxCell>
        <mxCell id="4P5M6g8KuMsYVDBknsH7-198" value="1" style="rounded=0;whiteSpace=wrap;html=1;dashed=1;fillColor=#dae8fc;strokeColor=#6c8ebf;" parent="1" vertex="1">
          <mxGeometry x="70" y="190" width="20" height="20" as="geometry" />
        </mxCell>
        <mxCell id="4P5M6g8KuMsYVDBknsH7-231" style="edgeStyle=orthogonalEdgeStyle;rounded=0;orthogonalLoop=1;jettySize=auto;html=1;exitX=0;exitY=1;exitDx=0;exitDy=0;entryX=0;entryY=0;entryDx=0;entryDy=0;" parent="1" source="4P5M6g8KuMsYVDBknsH7-199" target="4P5M6g8KuMsYVDBknsH7-46" edge="1">
          <mxGeometry relative="1" as="geometry" />
        </mxCell>
        <mxCell id="4P5M6g8KuMsYVDBknsH7-232" value="缩放" style="edgeLabel;html=1;align=center;verticalAlign=middle;resizable=0;points=[];" parent="4P5M6g8KuMsYVDBknsH7-231" vertex="1" connectable="0">
          <mxGeometry x="-0.2638" y="-1" relative="1" as="geometry">
            <mxPoint x="22" as="offset" />
          </mxGeometry>
        </mxCell>
        <mxCell id="4P5M6g8KuMsYVDBknsH7-199" value="0" style="rounded=0;whiteSpace=wrap;html=1;dashed=1;fillColor=#dae8fc;strokeColor=#6c8ebf;" parent="1" vertex="1">
          <mxGeometry x="90" y="190" width="20" height="20" as="geometry" />
        </mxCell>
        <mxCell id="4P5M6g8KuMsYVDBknsH7-200" value="0" style="rounded=0;whiteSpace=wrap;html=1;dashed=1;fillColor=#d5e8d4;strokeColor=#82b366;" parent="1" vertex="1">
          <mxGeometry x="110" y="190" width="20" height="20" as="geometry" />
        </mxCell>
        <mxCell id="4P5M6g8KuMsYVDBknsH7-201" value="0" style="rounded=0;whiteSpace=wrap;html=1;dashed=1;fillColor=#d5e8d4;strokeColor=#82b366;" parent="1" vertex="1">
          <mxGeometry x="130" y="190" width="20" height="20" as="geometry" />
        </mxCell>
        <mxCell id="4P5M6g8KuMsYVDBknsH7-202" value="0" style="rounded=0;whiteSpace=wrap;html=1;dashed=1;fillColor=#d5e8d4;strokeColor=#82b366;" parent="1" vertex="1">
          <mxGeometry x="150" y="190" width="20" height="20" as="geometry" />
        </mxCell>
        <mxCell id="4P5M6g8KuMsYVDBknsH7-203" value="0" style="rounded=0;whiteSpace=wrap;html=1;dashed=1;fillColor=#d5e8d4;strokeColor=#82b366;" parent="1" vertex="1">
          <mxGeometry x="170" y="190" width="20" height="20" as="geometry" />
        </mxCell>
        <mxCell id="4P5M6g8KuMsYVDBknsH7-204" value="0" style="rounded=0;whiteSpace=wrap;html=1;dashed=1;fillColor=#d5e8d4;strokeColor=#82b366;" parent="1" vertex="1">
          <mxGeometry x="190" y="190" width="20" height="20" as="geometry" />
        </mxCell>
        <mxCell id="4P5M6g8KuMsYVDBknsH7-205" value="0" style="rounded=0;whiteSpace=wrap;html=1;dashed=1;fillColor=#d5e8d4;strokeColor=#82b366;" parent="1" vertex="1">
          <mxGeometry x="210" y="190" width="20" height="20" as="geometry" />
        </mxCell>
        <mxCell id="4P5M6g8KuMsYVDBknsH7-206" value="0" style="rounded=0;whiteSpace=wrap;html=1;dashed=1;fillColor=#d5e8d4;strokeColor=#82b366;" parent="1" vertex="1">
          <mxGeometry x="230" y="190" width="20" height="20" as="geometry" />
        </mxCell>
        <mxCell id="4P5M6g8KuMsYVDBknsH7-207" value="0" style="rounded=0;whiteSpace=wrap;html=1;dashed=1;fillColor=#d5e8d4;strokeColor=#82b366;" parent="1" vertex="1">
          <mxGeometry x="250" y="190" width="20" height="20" as="geometry" />
        </mxCell>
        <mxCell id="4P5M6g8KuMsYVDBknsH7-208" value="0" style="rounded=0;whiteSpace=wrap;html=1;dashed=1;fillColor=#d5e8d4;strokeColor=#82b366;" parent="1" vertex="1">
          <mxGeometry x="270" y="190" width="20" height="20" as="geometry" />
        </mxCell>
        <mxCell id="4P5M6g8KuMsYVDBknsH7-209" value="0" style="rounded=0;whiteSpace=wrap;html=1;dashed=1;fillColor=#d5e8d4;strokeColor=#82b366;" parent="1" vertex="1">
          <mxGeometry x="290" y="190" width="20" height="20" as="geometry" />
        </mxCell>
        <mxCell id="4P5M6g8KuMsYVDBknsH7-210" value="0" style="rounded=0;whiteSpace=wrap;html=1;dashed=1;fillColor=#d5e8d4;strokeColor=#82b366;" parent="1" vertex="1">
          <mxGeometry x="310" y="190" width="20" height="20" as="geometry" />
        </mxCell>
        <mxCell id="4P5M6g8KuMsYVDBknsH7-211" value="0" style="rounded=0;whiteSpace=wrap;html=1;dashed=1;fillColor=#d5e8d4;strokeColor=#82b366;" parent="1" vertex="1">
          <mxGeometry x="330" y="190" width="20" height="20" as="geometry" />
        </mxCell>
        <mxCell id="4P5M6g8KuMsYVDBknsH7-212" value="0" style="rounded=0;whiteSpace=wrap;html=1;dashed=1;fillColor=#d5e8d4;strokeColor=#82b366;" parent="1" vertex="1">
          <mxGeometry x="350" y="190" width="20" height="20" as="geometry" />
        </mxCell>
        <mxCell id="4P5M6g8KuMsYVDBknsH7-213" value="0" style="rounded=0;whiteSpace=wrap;html=1;dashed=1;fillColor=#d5e8d4;strokeColor=#82b366;" parent="1" vertex="1">
          <mxGeometry x="370" y="190" width="20" height="20" as="geometry" />
        </mxCell>
        <mxCell id="4P5M6g8KuMsYVDBknsH7-214" value="0" style="rounded=0;whiteSpace=wrap;html=1;dashed=1;fillColor=#d5e8d4;strokeColor=#82b366;" parent="1" vertex="1">
          <mxGeometry x="390" y="190" width="20" height="20" as="geometry" />
        </mxCell>
        <mxCell id="4P5M6g8KuMsYVDBknsH7-215" value="0" style="rounded=0;whiteSpace=wrap;html=1;dashed=1;fillColor=#d5e8d4;strokeColor=#82b366;" parent="1" vertex="1">
          <mxGeometry x="410" y="190" width="20" height="20" as="geometry" />
        </mxCell>
        <mxCell id="4P5M6g8KuMsYVDBknsH7-216" value="0" style="rounded=0;whiteSpace=wrap;html=1;dashed=1;fillColor=#d5e8d4;strokeColor=#82b366;" parent="1" vertex="1">
          <mxGeometry x="430" y="190" width="20" height="20" as="geometry" />
        </mxCell>
        <mxCell id="4P5M6g8KuMsYVDBknsH7-217" value="0" style="rounded=0;whiteSpace=wrap;html=1;dashed=1;fillColor=#d5e8d4;strokeColor=#82b366;" parent="1" vertex="1">
          <mxGeometry x="450" y="190" width="20" height="20" as="geometry" />
        </mxCell>
        <mxCell id="4P5M6g8KuMsYVDBknsH7-218" value="0" style="rounded=0;whiteSpace=wrap;html=1;dashed=1;fillColor=#d5e8d4;strokeColor=#82b366;" parent="1" vertex="1">
          <mxGeometry x="470" y="190" width="20" height="20" as="geometry" />
        </mxCell>
        <mxCell id="4P5M6g8KuMsYVDBknsH7-219" value="0" style="rounded=0;whiteSpace=wrap;html=1;dashed=1;fillColor=#d5e8d4;strokeColor=#82b366;" parent="1" vertex="1">
          <mxGeometry x="490" y="190" width="20" height="20" as="geometry" />
        </mxCell>
        <mxCell id="4P5M6g8KuMsYVDBknsH7-220" value="0" style="rounded=0;whiteSpace=wrap;html=1;dashed=1;fillColor=#d5e8d4;strokeColor=#82b366;" parent="1" vertex="1">
          <mxGeometry x="510" y="190" width="20" height="20" as="geometry" />
        </mxCell>
        <mxCell id="4P5M6g8KuMsYVDBknsH7-221" value="0" style="rounded=0;whiteSpace=wrap;html=1;dashed=1;fillColor=#d5e8d4;strokeColor=#82b366;" parent="1" vertex="1">
          <mxGeometry x="530" y="190" width="20" height="20" as="geometry" />
        </mxCell>
        <mxCell id="4P5M6g8KuMsYVDBknsH7-222" value="0" style="rounded=0;whiteSpace=wrap;html=1;dashed=1;fillColor=#d5e8d4;strokeColor=#82b366;" parent="1" vertex="1">
          <mxGeometry x="550" y="190" width="20" height="20" as="geometry" />
        </mxCell>
        <mxCell id="4P5M6g8KuMsYVDBknsH7-223" value="0" style="rounded=0;whiteSpace=wrap;html=1;dashed=1;fillColor=#d5e8d4;strokeColor=#82b366;" parent="1" vertex="1">
          <mxGeometry x="570" y="190" width="20" height="20" as="geometry" />
        </mxCell>
        <mxCell id="4P5M6g8KuMsYVDBknsH7-224" value="0" style="rounded=0;whiteSpace=wrap;html=1;dashed=1;fillColor=#d5e8d4;strokeColor=#82b366;" parent="1" vertex="1">
          <mxGeometry x="590" y="190" width="20" height="20" as="geometry" />
        </mxCell>
        <mxCell id="4P5M6g8KuMsYVDBknsH7-225" value="0" style="rounded=0;whiteSpace=wrap;html=1;dashed=1;fillColor=#d5e8d4;strokeColor=#82b366;" parent="1" vertex="1">
          <mxGeometry x="610" y="190" width="20" height="20" as="geometry" />
        </mxCell>
        <mxCell id="4P5M6g8KuMsYVDBknsH7-226" value="0" style="rounded=0;whiteSpace=wrap;html=1;dashed=1;fillColor=#d5e8d4;strokeColor=#82b366;" parent="1" vertex="1">
          <mxGeometry x="630" y="190" width="20" height="20" as="geometry" />
        </mxCell>
        <mxCell id="4P5M6g8KuMsYVDBknsH7-227" value="0" style="rounded=0;whiteSpace=wrap;html=1;dashed=1;fillColor=#d5e8d4;strokeColor=#82b366;" parent="1" vertex="1">
          <mxGeometry x="650" y="190" width="20" height="20" as="geometry" />
        </mxCell>
        <mxCell id="4P5M6g8KuMsYVDBknsH7-228" value="0" style="rounded=0;whiteSpace=wrap;html=1;dashed=1;fillColor=#d5e8d4;strokeColor=#82b366;" parent="1" vertex="1">
          <mxGeometry x="670" y="190" width="20" height="20" as="geometry" />
        </mxCell>
        <mxCell id="4P5M6g8KuMsYVDBknsH7-229" value="定点数：2" style="text;html=1;strokeColor=none;fillColor=none;align=center;verticalAlign=middle;whiteSpace=wrap;rounded=0;" parent="1" vertex="1">
          <mxGeometry x="-40" y="185" width="80" height="30" as="geometry" />
        </mxCell>
        <mxCell id="4P5M6g8KuMsYVDBknsH7-233" value="定点：1.414" style="text;html=1;strokeColor=none;fillColor=none;align=center;verticalAlign=middle;whiteSpace=wrap;rounded=0;" parent="1" vertex="1">
          <mxGeometry x="-45" y="580" width="80" height="30" as="geometry" />
        </mxCell>
      </root>
    </mxGraphModel>
  </diagram>
</mxfile>
